<mxfile host="65bd71144e">
    <diagram id="6W3zWPO9bgxNv6p76w9L" name="data-logical-flow">
        <mxGraphModel dx="950" dy="452" grid="1" gridSize="10" guides="1" tooltips="1" connect="1" arrows="1" fold="1" page="1" pageScale="1" pageWidth="850" pageHeight="1100" background="none" math="0" shadow="0">
            <root>
                <mxCell id="7ryWAxXGk5FzE_vCHZx1-0"/>
                <mxCell id="7ryWAxXGk5FzE_vCHZx1-1" parent="7ryWAxXGk5FzE_vCHZx1-0"/>
                <mxCell id="GtAkHmeaPBVohz0T6Tli-0" value="" style="shape=ext;double=1;rounded=0;whiteSpace=wrap;html=1;fillColor=#1ba1e2;fontColor=#ffffff;strokeColor=#006EAF;" parent="7ryWAxXGk5FzE_vCHZx1-1" vertex="1">
                    <mxGeometry x="40" y="40" width="80" height="400" as="geometry"/>
                </mxCell>
                <mxCell id="GtAkHmeaPBVohz0T6Tli-46" style="edgeStyle=none;html=1;exitX=0.5;exitY=1;exitDx=0;exitDy=0;fontSize=14;" parent="7ryWAxXGk5FzE_vCHZx1-1" source="GtAkHmeaPBVohz0T6Tli-15" edge="1">
                    <mxGeometry relative="1" as="geometry">
                        <mxPoint x="270" y="200" as="targetPoint"/>
                    </mxGeometry>
                </mxCell>
                <mxCell id="GtAkHmeaPBVohz0T6Tli-15" value="" style="ellipse;shape=doubleEllipse;whiteSpace=wrap;html=1;fillColor=#1ba1e2;fontColor=#ffffff;strokeColor=#006EAF;" parent="7ryWAxXGk5FzE_vCHZx1-1" vertex="1">
                    <mxGeometry x="220" y="90" width="100" height="60" as="geometry"/>
                </mxCell>
                <mxCell id="GtAkHmeaPBVohz0T6Tli-47" style="edgeStyle=none;html=1;exitX=0.5;exitY=1;exitDx=0;exitDy=0;fontSize=14;" parent="7ryWAxXGk5FzE_vCHZx1-1" source="GtAkHmeaPBVohz0T6Tli-16" edge="1">
                    <mxGeometry relative="1" as="geometry">
                        <mxPoint x="270" y="320" as="targetPoint"/>
                    </mxGeometry>
                </mxCell>
                <mxCell id="GtAkHmeaPBVohz0T6Tli-16" value="" style="ellipse;shape=doubleEllipse;whiteSpace=wrap;html=1;fillColor=#1ba1e2;fontColor=#ffffff;strokeColor=#006EAF;" parent="7ryWAxXGk5FzE_vCHZx1-1" vertex="1">
                    <mxGeometry x="220" y="210" width="100" height="60" as="geometry"/>
                </mxCell>
                <mxCell id="GtAkHmeaPBVohz0T6Tli-139" style="edgeStyle=none;html=1;exitX=0.5;exitY=1;exitDx=0;exitDy=0;fontSize=14;" parent="7ryWAxXGk5FzE_vCHZx1-1" source="GtAkHmeaPBVohz0T6Tli-17" edge="1">
                    <mxGeometry relative="1" as="geometry">
                        <mxPoint x="270" y="440" as="targetPoint"/>
                    </mxGeometry>
                </mxCell>
                <mxCell id="GtAkHmeaPBVohz0T6Tli-17" value="" style="ellipse;shape=doubleEllipse;whiteSpace=wrap;html=1;fillColor=#1ba1e2;fontColor=#ffffff;strokeColor=#006EAF;" parent="7ryWAxXGk5FzE_vCHZx1-1" vertex="1">
                    <mxGeometry x="220" y="330" width="100" height="60" as="geometry"/>
                </mxCell>
                <mxCell id="GtAkHmeaPBVohz0T6Tli-18" value="" style="shape=curlyBracket;whiteSpace=wrap;html=1;rounded=1;flipH=1;size=0.5;" parent="7ryWAxXGk5FzE_vCHZx1-1" vertex="1">
                    <mxGeometry x="440" y="50" width="10" height="120" as="geometry"/>
                </mxCell>
                <mxCell id="GtAkHmeaPBVohz0T6Tli-23" value="ICU Unit" style="text;html=1;resizable=0;autosize=1;align=center;verticalAlign=middle;points=[];fillColor=none;strokeColor=none;rounded=0;fontSize=14;" parent="7ryWAxXGk5FzE_vCHZx1-1" vertex="1">
                    <mxGeometry x="235" y="110" width="70" height="20" as="geometry"/>
                </mxCell>
                <mxCell id="GtAkHmeaPBVohz0T6Tli-24" value="t_1" style="text;html=1;resizable=0;autosize=1;align=center;verticalAlign=middle;points=[];fillColor=none;strokeColor=none;rounded=0;" parent="7ryWAxXGk5FzE_vCHZx1-1" vertex="1">
                    <mxGeometry x="65" y="110" width="30" height="20" as="geometry"/>
                </mxCell>
                <mxCell id="GtAkHmeaPBVohz0T6Tli-25" value="Admisssion" style="text;html=1;resizable=0;autosize=1;align=center;verticalAlign=middle;points=[];fillColor=none;strokeColor=none;rounded=0;rotation=-90;fontStyle=1;fontSize=16;" parent="7ryWAxXGk5FzE_vCHZx1-1" vertex="1">
                    <mxGeometry x="-35" y="230" width="110" height="20" as="geometry"/>
                </mxCell>
                <mxCell id="GtAkHmeaPBVohz0T6Tli-28" value="ICU Unit" style="text;html=1;resizable=0;autosize=1;align=center;verticalAlign=middle;points=[];fillColor=none;strokeColor=none;rounded=0;fontSize=14;" parent="7ryWAxXGk5FzE_vCHZx1-1" vertex="1">
                    <mxGeometry x="235" y="230" width="70" height="20" as="geometry"/>
                </mxCell>
                <mxCell id="GtAkHmeaPBVohz0T6Tli-30" value="" style="shape=curlyBracket;whiteSpace=wrap;html=1;rounded=1;flipH=1;size=0.5;" parent="7ryWAxXGk5FzE_vCHZx1-1" vertex="1">
                    <mxGeometry x="440" y="180" width="10" height="120" as="geometry"/>
                </mxCell>
                <mxCell id="GtAkHmeaPBVohz0T6Tli-32" value="" style="shape=curlyBracket;whiteSpace=wrap;html=1;rounded=1;flipH=1;size=0.5;" parent="7ryWAxXGk5FzE_vCHZx1-1" vertex="1">
                    <mxGeometry x="440" y="310" width="10" height="120" as="geometry"/>
                </mxCell>
                <mxCell id="GtAkHmeaPBVohz0T6Tli-34" value="t_2" style="text;html=1;resizable=0;autosize=1;align=center;verticalAlign=middle;points=[];fillColor=none;strokeColor=none;rounded=0;fontSize=14;" parent="7ryWAxXGk5FzE_vCHZx1-1" vertex="1">
                    <mxGeometry x="65" y="230" width="30" height="20" as="geometry"/>
                </mxCell>
                <mxCell id="GtAkHmeaPBVohz0T6Tli-35" value="t_3" style="text;html=1;resizable=0;autosize=1;align=center;verticalAlign=middle;points=[];fillColor=none;strokeColor=none;rounded=0;fontSize=14;" parent="7ryWAxXGk5FzE_vCHZx1-1" vertex="1">
                    <mxGeometry x="65" y="350" width="30" height="20" as="geometry"/>
                </mxCell>
                <mxCell id="GtAkHmeaPBVohz0T6Tli-36" value="ICU Unit" style="text;html=1;resizable=0;autosize=1;align=center;verticalAlign=middle;points=[];fillColor=none;strokeColor=none;rounded=0;fontSize=14;" parent="7ryWAxXGk5FzE_vCHZx1-1" vertex="1">
                    <mxGeometry x="235" y="350" width="70" height="20" as="geometry"/>
                </mxCell>
                <mxCell id="GtAkHmeaPBVohz0T6Tli-37" value="Step1: admit" style="text;html=1;resizable=0;autosize=1;align=center;verticalAlign=middle;points=[];fillColor=none;strokeColor=none;rounded=0;fontSize=14;" parent="7ryWAxXGk5FzE_vCHZx1-1" vertex="1">
                    <mxGeometry x="120" y="90" width="90" height="20" as="geometry"/>
                </mxCell>
                <mxCell id="GtAkHmeaPBVohz0T6Tli-39" value="Step3: transfer" style="text;html=1;resizable=0;autosize=1;align=center;verticalAlign=middle;points=[];fillColor=none;strokeColor=none;rounded=0;fontSize=14;" parent="7ryWAxXGk5FzE_vCHZx1-1" vertex="1">
                    <mxGeometry x="155" y="160" width="110" height="20" as="geometry"/>
                </mxCell>
                <mxCell id="GtAkHmeaPBVohz0T6Tli-40" value="Step5: transfer" style="text;html=1;resizable=0;autosize=1;align=center;verticalAlign=middle;points=[];fillColor=none;strokeColor=none;rounded=0;fontSize=14;" parent="7ryWAxXGk5FzE_vCHZx1-1" vertex="1">
                    <mxGeometry x="155" y="290" width="110" height="20" as="geometry"/>
                </mxCell>
                <mxCell id="GtAkHmeaPBVohz0T6Tli-43" value="Step2: procedures" style="text;html=1;resizable=0;autosize=1;align=center;verticalAlign=middle;points=[];fillColor=none;strokeColor=none;rounded=0;fontSize=14;" parent="7ryWAxXGk5FzE_vCHZx1-1" vertex="1">
                    <mxGeometry x="315" y="90" width="130" height="20" as="geometry"/>
                </mxCell>
                <mxCell id="GtAkHmeaPBVohz0T6Tli-44" value="Step4: procedures" style="text;html=1;resizable=0;autosize=1;align=center;verticalAlign=middle;points=[];fillColor=none;strokeColor=none;rounded=0;fontSize=14;" parent="7ryWAxXGk5FzE_vCHZx1-1" vertex="1">
                    <mxGeometry x="315" y="210" width="130" height="20" as="geometry"/>
                </mxCell>
                <mxCell id="GtAkHmeaPBVohz0T6Tli-45" value="Step6: procedures" style="text;html=1;resizable=0;autosize=1;align=center;verticalAlign=middle;points=[];fillColor=none;strokeColor=none;rounded=0;fontSize=14;" parent="7ryWAxXGk5FzE_vCHZx1-1" vertex="1">
                    <mxGeometry x="315" y="320" width="130" height="20" as="geometry"/>
                </mxCell>
                <mxCell id="GtAkHmeaPBVohz0T6Tli-88" value="Drugs Given" style="shape=table;startSize=30;container=1;collapsible=0;childLayout=tableLayout;fontStyle=1;align=center;pointerEvents=1;fontSize=14;" parent="7ryWAxXGk5FzE_vCHZx1-1" vertex="1">
                    <mxGeometry x="470" y="60" width="260" height="100" as="geometry"/>
                </mxCell>
                <mxCell id="GtAkHmeaPBVohz0T6Tli-89" value="" style="shape=partialRectangle;html=1;whiteSpace=wrap;collapsible=0;dropTarget=0;pointerEvents=0;fillColor=none;top=0;left=0;bottom=0;right=0;points=[[0,0.5],[1,0.5]];portConstraint=eastwest;fontSize=14;" parent="GtAkHmeaPBVohz0T6Tli-88" vertex="1">
                    <mxGeometry y="30" width="260" height="23" as="geometry"/>
                </mxCell>
                <mxCell id="GtAkHmeaPBVohz0T6Tli-90" value="Start_date" style="shape=partialRectangle;html=1;whiteSpace=wrap;connectable=0;fillColor=none;top=0;left=0;bottom=0;right=0;overflow=hidden;pointerEvents=1;fontSize=14;" parent="GtAkHmeaPBVohz0T6Tli-89" vertex="1">
                    <mxGeometry width="87" height="23" as="geometry">
                        <mxRectangle width="87" height="23" as="alternateBounds"/>
                    </mxGeometry>
                </mxCell>
                <mxCell id="GtAkHmeaPBVohz0T6Tli-91" value="End_date" style="shape=partialRectangle;html=1;whiteSpace=wrap;connectable=0;fillColor=none;top=0;left=0;bottom=0;right=0;overflow=hidden;pointerEvents=1;fontSize=14;" parent="GtAkHmeaPBVohz0T6Tli-89" vertex="1">
                    <mxGeometry x="87" width="86" height="23" as="geometry">
                        <mxRectangle width="86" height="23" as="alternateBounds"/>
                    </mxGeometry>
                </mxCell>
                <mxCell id="GtAkHmeaPBVohz0T6Tli-92" value="Drug" style="shape=partialRectangle;html=1;whiteSpace=wrap;connectable=0;fillColor=none;top=0;left=0;bottom=0;right=0;overflow=hidden;pointerEvents=1;fontSize=14;" parent="GtAkHmeaPBVohz0T6Tli-89" vertex="1">
                    <mxGeometry x="173" width="87" height="23" as="geometry">
                        <mxRectangle width="87" height="23" as="alternateBounds"/>
                    </mxGeometry>
                </mxCell>
                <mxCell id="GtAkHmeaPBVohz0T6Tli-93" value="" style="shape=partialRectangle;html=1;whiteSpace=wrap;collapsible=0;dropTarget=0;pointerEvents=0;fillColor=none;top=0;left=0;bottom=0;right=0;points=[[0,0.5],[1,0.5]];portConstraint=eastwest;fontSize=14;" parent="GtAkHmeaPBVohz0T6Tli-88" vertex="1">
                    <mxGeometry y="53" width="260" height="24" as="geometry"/>
                </mxCell>
                <mxCell id="GtAkHmeaPBVohz0T6Tli-94" value="" style="shape=partialRectangle;html=1;whiteSpace=wrap;connectable=0;fillColor=none;top=0;left=0;bottom=0;right=0;overflow=hidden;pointerEvents=1;fontSize=14;" parent="GtAkHmeaPBVohz0T6Tli-93" vertex="1">
                    <mxGeometry width="87" height="24" as="geometry">
                        <mxRectangle width="87" height="24" as="alternateBounds"/>
                    </mxGeometry>
                </mxCell>
                <mxCell id="GtAkHmeaPBVohz0T6Tli-95" value="" style="shape=partialRectangle;html=1;whiteSpace=wrap;connectable=0;fillColor=none;top=0;left=0;bottom=0;right=0;overflow=hidden;pointerEvents=1;fontSize=14;" parent="GtAkHmeaPBVohz0T6Tli-93" vertex="1">
                    <mxGeometry x="87" width="86" height="24" as="geometry">
                        <mxRectangle width="86" height="24" as="alternateBounds"/>
                    </mxGeometry>
                </mxCell>
                <mxCell id="GtAkHmeaPBVohz0T6Tli-96" value="" style="shape=partialRectangle;html=1;whiteSpace=wrap;connectable=0;fillColor=none;top=0;left=0;bottom=0;right=0;overflow=hidden;pointerEvents=1;fontSize=14;" parent="GtAkHmeaPBVohz0T6Tli-93" vertex="1">
                    <mxGeometry x="173" width="87" height="24" as="geometry">
                        <mxRectangle width="87" height="24" as="alternateBounds"/>
                    </mxGeometry>
                </mxCell>
                <mxCell id="GtAkHmeaPBVohz0T6Tli-97" value="" style="shape=partialRectangle;html=1;whiteSpace=wrap;collapsible=0;dropTarget=0;pointerEvents=0;fillColor=none;top=0;left=0;bottom=0;right=0;points=[[0,0.5],[1,0.5]];portConstraint=eastwest;fontSize=14;" parent="GtAkHmeaPBVohz0T6Tli-88" vertex="1">
                    <mxGeometry y="77" width="260" height="23" as="geometry"/>
                </mxCell>
                <mxCell id="GtAkHmeaPBVohz0T6Tli-98" value="" style="shape=partialRectangle;html=1;whiteSpace=wrap;connectable=0;fillColor=none;top=0;left=0;bottom=0;right=0;overflow=hidden;pointerEvents=1;fontSize=14;" parent="GtAkHmeaPBVohz0T6Tli-97" vertex="1">
                    <mxGeometry width="87" height="23" as="geometry">
                        <mxRectangle width="87" height="23" as="alternateBounds"/>
                    </mxGeometry>
                </mxCell>
                <mxCell id="GtAkHmeaPBVohz0T6Tli-99" value="" style="shape=partialRectangle;html=1;whiteSpace=wrap;connectable=0;fillColor=none;top=0;left=0;bottom=0;right=0;overflow=hidden;pointerEvents=1;fontSize=14;" parent="GtAkHmeaPBVohz0T6Tli-97" vertex="1">
                    <mxGeometry x="87" width="86" height="23" as="geometry">
                        <mxRectangle width="86" height="23" as="alternateBounds"/>
                    </mxGeometry>
                </mxCell>
                <mxCell id="GtAkHmeaPBVohz0T6Tli-100" value="" style="shape=partialRectangle;html=1;whiteSpace=wrap;connectable=0;fillColor=none;top=0;left=0;bottom=0;right=0;overflow=hidden;pointerEvents=1;fontSize=14;" parent="GtAkHmeaPBVohz0T6Tli-97" vertex="1">
                    <mxGeometry x="173" width="87" height="23" as="geometry">
                        <mxRectangle width="87" height="23" as="alternateBounds"/>
                    </mxGeometry>
                </mxCell>
                <mxCell id="GtAkHmeaPBVohz0T6Tli-103" value="Drugs Given" style="shape=table;startSize=30;container=1;collapsible=0;childLayout=tableLayout;fontStyle=1;align=center;pointerEvents=1;fontSize=14;" parent="7ryWAxXGk5FzE_vCHZx1-1" vertex="1">
                    <mxGeometry x="470" y="200" width="260" height="100" as="geometry"/>
                </mxCell>
                <mxCell id="GtAkHmeaPBVohz0T6Tli-104" value="" style="shape=partialRectangle;html=1;whiteSpace=wrap;collapsible=0;dropTarget=0;pointerEvents=0;fillColor=none;top=0;left=0;bottom=0;right=0;points=[[0,0.5],[1,0.5]];portConstraint=eastwest;fontSize=14;" parent="GtAkHmeaPBVohz0T6Tli-103" vertex="1">
                    <mxGeometry y="30" width="260" height="23" as="geometry"/>
                </mxCell>
                <mxCell id="GtAkHmeaPBVohz0T6Tli-105" value="Start_date" style="shape=partialRectangle;html=1;whiteSpace=wrap;connectable=0;fillColor=none;top=0;left=0;bottom=0;right=0;overflow=hidden;pointerEvents=1;fontSize=14;" parent="GtAkHmeaPBVohz0T6Tli-104" vertex="1">
                    <mxGeometry width="87" height="23" as="geometry">
                        <mxRectangle width="87" height="23" as="alternateBounds"/>
                    </mxGeometry>
                </mxCell>
                <mxCell id="GtAkHmeaPBVohz0T6Tli-106" value="End_date" style="shape=partialRectangle;html=1;whiteSpace=wrap;connectable=0;fillColor=none;top=0;left=0;bottom=0;right=0;overflow=hidden;pointerEvents=1;fontSize=14;" parent="GtAkHmeaPBVohz0T6Tli-104" vertex="1">
                    <mxGeometry x="87" width="86" height="23" as="geometry">
                        <mxRectangle width="86" height="23" as="alternateBounds"/>
                    </mxGeometry>
                </mxCell>
                <mxCell id="GtAkHmeaPBVohz0T6Tli-107" value="Drug" style="shape=partialRectangle;html=1;whiteSpace=wrap;connectable=0;fillColor=none;top=0;left=0;bottom=0;right=0;overflow=hidden;pointerEvents=1;fontSize=14;" parent="GtAkHmeaPBVohz0T6Tli-104" vertex="1">
                    <mxGeometry x="173" width="87" height="23" as="geometry">
                        <mxRectangle width="87" height="23" as="alternateBounds"/>
                    </mxGeometry>
                </mxCell>
                <mxCell id="GtAkHmeaPBVohz0T6Tli-108" value="" style="shape=partialRectangle;html=1;whiteSpace=wrap;collapsible=0;dropTarget=0;pointerEvents=0;fillColor=none;top=0;left=0;bottom=0;right=0;points=[[0,0.5],[1,0.5]];portConstraint=eastwest;fontSize=14;" parent="GtAkHmeaPBVohz0T6Tli-103" vertex="1">
                    <mxGeometry y="53" width="260" height="24" as="geometry"/>
                </mxCell>
                <mxCell id="GtAkHmeaPBVohz0T6Tli-109" value="" style="shape=partialRectangle;html=1;whiteSpace=wrap;connectable=0;fillColor=none;top=0;left=0;bottom=0;right=0;overflow=hidden;pointerEvents=1;fontSize=14;" parent="GtAkHmeaPBVohz0T6Tli-108" vertex="1">
                    <mxGeometry width="87" height="24" as="geometry">
                        <mxRectangle width="87" height="24" as="alternateBounds"/>
                    </mxGeometry>
                </mxCell>
                <mxCell id="GtAkHmeaPBVohz0T6Tli-110" value="" style="shape=partialRectangle;html=1;whiteSpace=wrap;connectable=0;fillColor=none;top=0;left=0;bottom=0;right=0;overflow=hidden;pointerEvents=1;fontSize=14;" parent="GtAkHmeaPBVohz0T6Tli-108" vertex="1">
                    <mxGeometry x="87" width="86" height="24" as="geometry">
                        <mxRectangle width="86" height="24" as="alternateBounds"/>
                    </mxGeometry>
                </mxCell>
                <mxCell id="GtAkHmeaPBVohz0T6Tli-111" value="" style="shape=partialRectangle;html=1;whiteSpace=wrap;connectable=0;fillColor=none;top=0;left=0;bottom=0;right=0;overflow=hidden;pointerEvents=1;fontSize=14;" parent="GtAkHmeaPBVohz0T6Tli-108" vertex="1">
                    <mxGeometry x="173" width="87" height="24" as="geometry">
                        <mxRectangle width="87" height="24" as="alternateBounds"/>
                    </mxGeometry>
                </mxCell>
                <mxCell id="GtAkHmeaPBVohz0T6Tli-112" value="" style="shape=partialRectangle;html=1;whiteSpace=wrap;collapsible=0;dropTarget=0;pointerEvents=0;fillColor=none;top=0;left=0;bottom=0;right=0;points=[[0,0.5],[1,0.5]];portConstraint=eastwest;fontSize=14;" parent="GtAkHmeaPBVohz0T6Tli-103" vertex="1">
                    <mxGeometry y="77" width="260" height="23" as="geometry"/>
                </mxCell>
                <mxCell id="GtAkHmeaPBVohz0T6Tli-113" value="" style="shape=partialRectangle;html=1;whiteSpace=wrap;connectable=0;fillColor=none;top=0;left=0;bottom=0;right=0;overflow=hidden;pointerEvents=1;fontSize=14;" parent="GtAkHmeaPBVohz0T6Tli-112" vertex="1">
                    <mxGeometry width="87" height="23" as="geometry">
                        <mxRectangle width="87" height="23" as="alternateBounds"/>
                    </mxGeometry>
                </mxCell>
                <mxCell id="GtAkHmeaPBVohz0T6Tli-114" value="" style="shape=partialRectangle;html=1;whiteSpace=wrap;connectable=0;fillColor=none;top=0;left=0;bottom=0;right=0;overflow=hidden;pointerEvents=1;fontSize=14;" parent="GtAkHmeaPBVohz0T6Tli-112" vertex="1">
                    <mxGeometry x="87" width="86" height="23" as="geometry">
                        <mxRectangle width="86" height="23" as="alternateBounds"/>
                    </mxGeometry>
                </mxCell>
                <mxCell id="GtAkHmeaPBVohz0T6Tli-115" value="" style="shape=partialRectangle;html=1;whiteSpace=wrap;connectable=0;fillColor=none;top=0;left=0;bottom=0;right=0;overflow=hidden;pointerEvents=1;fontSize=14;" parent="GtAkHmeaPBVohz0T6Tli-112" vertex="1">
                    <mxGeometry x="173" width="87" height="23" as="geometry">
                        <mxRectangle width="87" height="23" as="alternateBounds"/>
                    </mxGeometry>
                </mxCell>
                <mxCell id="GtAkHmeaPBVohz0T6Tli-116" value="" style="endArrow=classic;html=1;fontSize=14;" parent="7ryWAxXGk5FzE_vCHZx1-1" edge="1">
                    <mxGeometry width="50" height="50" relative="1" as="geometry">
                        <mxPoint x="120" y="119.5" as="sourcePoint"/>
                        <mxPoint x="210" y="119.5" as="targetPoint"/>
                    </mxGeometry>
                </mxCell>
                <mxCell id="GtAkHmeaPBVohz0T6Tli-117" value="Drugs Given" style="shape=table;startSize=30;container=1;collapsible=0;childLayout=tableLayout;fontStyle=1;align=center;pointerEvents=1;fontSize=14;" parent="7ryWAxXGk5FzE_vCHZx1-1" vertex="1">
                    <mxGeometry x="470" y="320" width="260" height="100" as="geometry"/>
                </mxCell>
                <mxCell id="GtAkHmeaPBVohz0T6Tli-118" value="" style="shape=partialRectangle;html=1;whiteSpace=wrap;collapsible=0;dropTarget=0;pointerEvents=0;fillColor=none;top=0;left=0;bottom=0;right=0;points=[[0,0.5],[1,0.5]];portConstraint=eastwest;fontSize=14;" parent="GtAkHmeaPBVohz0T6Tli-117" vertex="1">
                    <mxGeometry y="30" width="260" height="23" as="geometry"/>
                </mxCell>
                <mxCell id="GtAkHmeaPBVohz0T6Tli-119" value="Start_date" style="shape=partialRectangle;html=1;whiteSpace=wrap;connectable=0;fillColor=none;top=0;left=0;bottom=0;right=0;overflow=hidden;pointerEvents=1;fontSize=14;" parent="GtAkHmeaPBVohz0T6Tli-118" vertex="1">
                    <mxGeometry width="87" height="23" as="geometry">
                        <mxRectangle width="87" height="23" as="alternateBounds"/>
                    </mxGeometry>
                </mxCell>
                <mxCell id="GtAkHmeaPBVohz0T6Tli-120" value="End_date" style="shape=partialRectangle;html=1;whiteSpace=wrap;connectable=0;fillColor=none;top=0;left=0;bottom=0;right=0;overflow=hidden;pointerEvents=1;fontSize=14;" parent="GtAkHmeaPBVohz0T6Tli-118" vertex="1">
                    <mxGeometry x="87" width="86" height="23" as="geometry">
                        <mxRectangle width="86" height="23" as="alternateBounds"/>
                    </mxGeometry>
                </mxCell>
                <mxCell id="GtAkHmeaPBVohz0T6Tli-121" value="Drug" style="shape=partialRectangle;html=1;whiteSpace=wrap;connectable=0;fillColor=none;top=0;left=0;bottom=0;right=0;overflow=hidden;pointerEvents=1;fontSize=14;" parent="GtAkHmeaPBVohz0T6Tli-118" vertex="1">
                    <mxGeometry x="173" width="87" height="23" as="geometry">
                        <mxRectangle width="87" height="23" as="alternateBounds"/>
                    </mxGeometry>
                </mxCell>
                <mxCell id="GtAkHmeaPBVohz0T6Tli-122" value="" style="shape=partialRectangle;html=1;whiteSpace=wrap;collapsible=0;dropTarget=0;pointerEvents=0;fillColor=none;top=0;left=0;bottom=0;right=0;points=[[0,0.5],[1,0.5]];portConstraint=eastwest;fontSize=14;" parent="GtAkHmeaPBVohz0T6Tli-117" vertex="1">
                    <mxGeometry y="53" width="260" height="24" as="geometry"/>
                </mxCell>
                <mxCell id="GtAkHmeaPBVohz0T6Tli-123" value="" style="shape=partialRectangle;html=1;whiteSpace=wrap;connectable=0;fillColor=none;top=0;left=0;bottom=0;right=0;overflow=hidden;pointerEvents=1;fontSize=14;" parent="GtAkHmeaPBVohz0T6Tli-122" vertex="1">
                    <mxGeometry width="87" height="24" as="geometry">
                        <mxRectangle width="87" height="24" as="alternateBounds"/>
                    </mxGeometry>
                </mxCell>
                <mxCell id="GtAkHmeaPBVohz0T6Tli-124" value="" style="shape=partialRectangle;html=1;whiteSpace=wrap;connectable=0;fillColor=none;top=0;left=0;bottom=0;right=0;overflow=hidden;pointerEvents=1;fontSize=14;" parent="GtAkHmeaPBVohz0T6Tli-122" vertex="1">
                    <mxGeometry x="87" width="86" height="24" as="geometry">
                        <mxRectangle width="86" height="24" as="alternateBounds"/>
                    </mxGeometry>
                </mxCell>
                <mxCell id="GtAkHmeaPBVohz0T6Tli-125" value="" style="shape=partialRectangle;html=1;whiteSpace=wrap;connectable=0;fillColor=none;top=0;left=0;bottom=0;right=0;overflow=hidden;pointerEvents=1;fontSize=14;" parent="GtAkHmeaPBVohz0T6Tli-122" vertex="1">
                    <mxGeometry x="173" width="87" height="24" as="geometry">
                        <mxRectangle width="87" height="24" as="alternateBounds"/>
                    </mxGeometry>
                </mxCell>
                <mxCell id="GtAkHmeaPBVohz0T6Tli-126" value="" style="shape=partialRectangle;html=1;whiteSpace=wrap;collapsible=0;dropTarget=0;pointerEvents=0;fillColor=none;top=0;left=0;bottom=0;right=0;points=[[0,0.5],[1,0.5]];portConstraint=eastwest;fontSize=14;" parent="GtAkHmeaPBVohz0T6Tli-117" vertex="1">
                    <mxGeometry y="77" width="260" height="23" as="geometry"/>
                </mxCell>
                <mxCell id="GtAkHmeaPBVohz0T6Tli-127" value="" style="shape=partialRectangle;html=1;whiteSpace=wrap;connectable=0;fillColor=none;top=0;left=0;bottom=0;right=0;overflow=hidden;pointerEvents=1;fontSize=14;" parent="GtAkHmeaPBVohz0T6Tli-126" vertex="1">
                    <mxGeometry width="87" height="23" as="geometry">
                        <mxRectangle width="87" height="23" as="alternateBounds"/>
                    </mxGeometry>
                </mxCell>
                <mxCell id="GtAkHmeaPBVohz0T6Tli-128" value="" style="shape=partialRectangle;html=1;whiteSpace=wrap;connectable=0;fillColor=none;top=0;left=0;bottom=0;right=0;overflow=hidden;pointerEvents=1;fontSize=14;" parent="GtAkHmeaPBVohz0T6Tli-126" vertex="1">
                    <mxGeometry x="87" width="86" height="23" as="geometry">
                        <mxRectangle width="86" height="23" as="alternateBounds"/>
                    </mxGeometry>
                </mxCell>
                <mxCell id="GtAkHmeaPBVohz0T6Tli-129" value="" style="shape=partialRectangle;html=1;whiteSpace=wrap;connectable=0;fillColor=none;top=0;left=0;bottom=0;right=0;overflow=hidden;pointerEvents=1;fontSize=14;" parent="GtAkHmeaPBVohz0T6Tli-126" vertex="1">
                    <mxGeometry x="173" width="87" height="23" as="geometry">
                        <mxRectangle width="87" height="23" as="alternateBounds"/>
                    </mxGeometry>
                </mxCell>
                <mxCell id="GtAkHmeaPBVohz0T6Tli-132" value="" style="shape=crossbar;whiteSpace=wrap;html=1;rounded=1;fontSize=14;" parent="7ryWAxXGk5FzE_vCHZx1-1" vertex="1">
                    <mxGeometry x="320" y="110" width="120" height="20" as="geometry"/>
                </mxCell>
                <mxCell id="GtAkHmeaPBVohz0T6Tli-133" value="" style="shape=crossbar;whiteSpace=wrap;html=1;rounded=1;fontSize=14;" parent="7ryWAxXGk5FzE_vCHZx1-1" vertex="1">
                    <mxGeometry x="320" y="230" width="120" height="20" as="geometry"/>
                </mxCell>
                <mxCell id="GtAkHmeaPBVohz0T6Tli-135" value="" style="shape=crossbar;whiteSpace=wrap;html=1;rounded=1;fontSize=14;" parent="7ryWAxXGk5FzE_vCHZx1-1" vertex="1">
                    <mxGeometry x="320" y="350" width="120" height="20" as="geometry"/>
                </mxCell>
                <mxCell id="GtAkHmeaPBVohz0T6Tli-140" value="Step7: discharge" style="text;html=1;resizable=0;autosize=1;align=center;verticalAlign=middle;points=[];fillColor=none;strokeColor=none;rounded=0;fontSize=14;" parent="7ryWAxXGk5FzE_vCHZx1-1" vertex="1">
                    <mxGeometry x="210" y="450" width="120" height="20" as="geometry"/>
                </mxCell>
            </root>
        </mxGraphModel>
    </diagram>
    <diagram id="kPYEUf-QaxXd9xS04Okh" name="model-logical-flow">
        <mxGraphModel dx="710" dy="452" grid="1" gridSize="10" guides="1" tooltips="1" connect="1" arrows="1" fold="1" page="1" pageScale="1" pageWidth="850" pageHeight="1100" background="none" math="0" shadow="0">
            <root>
                <mxCell id="4x80Ldbw9CpgDFg0SE-S-0"/>
                <mxCell id="4x80Ldbw9CpgDFg0SE-S-1" parent="4x80Ldbw9CpgDFg0SE-S-0"/>
                <mxCell id="4x80Ldbw9CpgDFg0SE-S-13" value="Patient " style="shape=table;startSize=30;container=1;collapsible=0;childLayout=tableLayout;sketch=1;fillColor=#0050ef;fontColor=#ffffff;strokeColor=#001DBC;" parent="4x80Ldbw9CpgDFg0SE-S-1" vertex="1">
                    <mxGeometry x="270" y="40" width="370" height="230" as="geometry"/>
                </mxCell>
                <mxCell id="4x80Ldbw9CpgDFg0SE-S-14" value="" style="shape=partialRectangle;collapsible=0;dropTarget=0;pointerEvents=0;fillColor=none;top=0;left=0;bottom=0;right=0;points=[[0,0.5],[1,0.5]];portConstraint=eastwest;sketch=1;" parent="4x80Ldbw9CpgDFg0SE-S-13" vertex="1">
                    <mxGeometry y="30" width="370" height="67" as="geometry"/>
                </mxCell>
                <mxCell id="4x80Ldbw9CpgDFg0SE-S-15" value="t_1:&amp;nbsp; ICU Unit" style="shape=partialRectangle;html=1;whiteSpace=wrap;connectable=0;overflow=hidden;fillColor=none;top=0;left=0;bottom=0;right=0;pointerEvents=1;sketch=1;" parent="4x80Ldbw9CpgDFg0SE-S-14" vertex="1">
                    <mxGeometry width="123" height="67" as="geometry">
                        <mxRectangle width="123" height="67" as="alternateBounds"/>
                    </mxGeometry>
                </mxCell>
                <mxCell id="4x80Ldbw9CpgDFg0SE-S-16" value="Features" style="shape=partialRectangle;html=1;whiteSpace=wrap;connectable=0;overflow=hidden;fillColor=none;top=0;left=0;bottom=0;right=0;pointerEvents=1;sketch=1;" parent="4x80Ldbw9CpgDFg0SE-S-14" vertex="1">
                    <mxGeometry x="123" width="124" height="67" as="geometry">
                        <mxRectangle width="124" height="67" as="alternateBounds"/>
                    </mxGeometry>
                </mxCell>
                <mxCell id="4x80Ldbw9CpgDFg0SE-S-17" value="Drugs Given" style="shape=partialRectangle;html=1;whiteSpace=wrap;connectable=0;overflow=hidden;fillColor=none;top=0;left=0;bottom=0;right=0;pointerEvents=1;sketch=1;" parent="4x80Ldbw9CpgDFg0SE-S-14" vertex="1">
                    <mxGeometry x="247" width="123" height="67" as="geometry">
                        <mxRectangle width="123" height="67" as="alternateBounds"/>
                    </mxGeometry>
                </mxCell>
                <mxCell id="4x80Ldbw9CpgDFg0SE-S-18" value="" style="shape=partialRectangle;collapsible=0;dropTarget=0;pointerEvents=0;fillColor=none;top=0;left=0;bottom=0;right=0;points=[[0,0.5],[1,0.5]];portConstraint=eastwest;sketch=1;" parent="4x80Ldbw9CpgDFg0SE-S-13" vertex="1">
                    <mxGeometry y="97" width="370" height="66" as="geometry"/>
                </mxCell>
                <mxCell id="4x80Ldbw9CpgDFg0SE-S-19" value="t_2: ICU Unit" style="shape=partialRectangle;html=1;whiteSpace=wrap;connectable=0;overflow=hidden;fillColor=none;top=0;left=0;bottom=0;right=0;pointerEvents=1;sketch=1;" parent="4x80Ldbw9CpgDFg0SE-S-18" vertex="1">
                    <mxGeometry width="123" height="66" as="geometry">
                        <mxRectangle width="123" height="66" as="alternateBounds"/>
                    </mxGeometry>
                </mxCell>
                <mxCell id="4x80Ldbw9CpgDFg0SE-S-20" value="Features" style="shape=partialRectangle;html=1;whiteSpace=wrap;connectable=0;overflow=hidden;fillColor=none;top=0;left=0;bottom=0;right=0;pointerEvents=1;sketch=1;" parent="4x80Ldbw9CpgDFg0SE-S-18" vertex="1">
                    <mxGeometry x="123" width="124" height="66" as="geometry">
                        <mxRectangle width="124" height="66" as="alternateBounds"/>
                    </mxGeometry>
                </mxCell>
                <mxCell id="4x80Ldbw9CpgDFg0SE-S-21" value="Drugs Given" style="shape=partialRectangle;html=1;whiteSpace=wrap;connectable=0;overflow=hidden;fillColor=none;top=0;left=0;bottom=0;right=0;pointerEvents=1;sketch=1;" parent="4x80Ldbw9CpgDFg0SE-S-18" vertex="1">
                    <mxGeometry x="247" width="123" height="66" as="geometry">
                        <mxRectangle width="123" height="66" as="alternateBounds"/>
                    </mxGeometry>
                </mxCell>
                <mxCell id="4x80Ldbw9CpgDFg0SE-S-22" value="" style="shape=partialRectangle;collapsible=0;dropTarget=0;pointerEvents=0;fillColor=none;top=0;left=0;bottom=0;right=0;points=[[0,0.5],[1,0.5]];portConstraint=eastwest;sketch=1;" parent="4x80Ldbw9CpgDFg0SE-S-13" vertex="1">
                    <mxGeometry y="163" width="370" height="67" as="geometry"/>
                </mxCell>
                <mxCell id="4x80Ldbw9CpgDFg0SE-S-23" value="t_3: ICU Unit" style="shape=partialRectangle;html=1;whiteSpace=wrap;connectable=0;overflow=hidden;fillColor=none;top=0;left=0;bottom=0;right=0;pointerEvents=1;sketch=1;" parent="4x80Ldbw9CpgDFg0SE-S-22" vertex="1">
                    <mxGeometry width="123" height="67" as="geometry">
                        <mxRectangle width="123" height="67" as="alternateBounds"/>
                    </mxGeometry>
                </mxCell>
                <mxCell id="4x80Ldbw9CpgDFg0SE-S-24" value="Features" style="shape=partialRectangle;html=1;whiteSpace=wrap;connectable=0;overflow=hidden;fillColor=none;top=0;left=0;bottom=0;right=0;pointerEvents=1;sketch=1;" parent="4x80Ldbw9CpgDFg0SE-S-22" vertex="1">
                    <mxGeometry x="123" width="124" height="67" as="geometry">
                        <mxRectangle width="124" height="67" as="alternateBounds"/>
                    </mxGeometry>
                </mxCell>
                <mxCell id="4x80Ldbw9CpgDFg0SE-S-25" value="Drugs Given" style="shape=partialRectangle;html=1;whiteSpace=wrap;connectable=0;overflow=hidden;fillColor=none;top=0;left=0;bottom=0;right=0;pointerEvents=1;sketch=1;" parent="4x80Ldbw9CpgDFg0SE-S-22" vertex="1">
                    <mxGeometry x="247" width="123" height="67" as="geometry">
                        <mxRectangle width="123" height="67" as="alternateBounds"/>
                    </mxGeometry>
                </mxCell>
                <mxCell id="Zzj57cpVAFLNGXkElkiQ-16" value="" style="curved=1;endArrow=classic;html=1;sketch=1;exitX=-0.005;exitY=0.617;exitDx=0;exitDy=0;exitPerimeter=0;" parent="4x80Ldbw9CpgDFg0SE-S-1" source="4x80Ldbw9CpgDFg0SE-S-14" edge="1">
                    <mxGeometry width="50" height="50" relative="1" as="geometry">
                        <mxPoint x="260" y="90" as="sourcePoint"/>
                        <mxPoint x="260" y="170" as="targetPoint"/>
                        <Array as="points">
                            <mxPoint x="190" y="100"/>
                        </Array>
                    </mxGeometry>
                </mxCell>
                <mxCell id="Zzj57cpVAFLNGXkElkiQ-17" value="" style="curved=1;endArrow=classic;html=1;sketch=1;exitX=-0.005;exitY=0.617;exitDx=0;exitDy=0;exitPerimeter=0;" parent="4x80Ldbw9CpgDFg0SE-S-1" edge="1">
                    <mxGeometry width="50" height="50" relative="1" as="geometry">
                        <mxPoint x="258.15" y="181.339" as="sourcePoint"/>
                        <mxPoint x="250" y="240" as="targetPoint"/>
                        <Array as="points">
                            <mxPoint x="180" y="170"/>
                        </Array>
                    </mxGeometry>
                </mxCell>
            </root>
        </mxGraphModel>
    </diagram>
    <diagram id="obo6f8vcw2ZE0TzNYwZ1" name="rnn-input">
        <mxGraphModel dx="1800" dy="452" grid="1" gridSize="10" guides="1" tooltips="1" connect="1" arrows="1" fold="1" page="1" pageScale="1" pageWidth="850" pageHeight="1100" background="#ffffff" math="0" shadow="0">
            <root>
                <mxCell id="QS4Drok9mOWs24paeTdG-0"/>
                <mxCell id="QS4Drok9mOWs24paeTdG-1" parent="QS4Drok9mOWs24paeTdG-0"/>
                <mxCell id="1mE4GKevzYRWsdsXhcsj-16" value="" style="shape=table;startSize=0;container=1;collapsible=0;childLayout=tableLayout;fillColor=#647687;fontColor=#ffffff;strokeColor=#314354;" vertex="1" parent="QS4Drok9mOWs24paeTdG-1">
                    <mxGeometry x="160" y="30" width="444" height="160" as="geometry"/>
                </mxCell>
                <mxCell id="1mE4GKevzYRWsdsXhcsj-17" value="" style="shape=partialRectangle;collapsible=0;dropTarget=0;pointerEvents=0;fillColor=none;top=0;left=0;bottom=0;right=0;points=[[0,0.5],[1,0.5]];portConstraint=eastwest;" vertex="1" parent="1mE4GKevzYRWsdsXhcsj-16">
                    <mxGeometry width="444" height="40" as="geometry"/>
                </mxCell>
                <mxCell id="1mE4GKevzYRWsdsXhcsj-41" value="Patient_ID" style="shape=partialRectangle;html=1;whiteSpace=wrap;connectable=0;overflow=hidden;fillColor=none;top=0;left=0;bottom=0;right=0;pointerEvents=1;" vertex="1" parent="1mE4GKevzYRWsdsXhcsj-17">
                    <mxGeometry width="74" height="40" as="geometry">
                        <mxRectangle width="74" height="40" as="alternateBounds"/>
                    </mxGeometry>
                </mxCell>
                <mxCell id="1mE4GKevzYRWsdsXhcsj-18" value="Time_step" style="shape=partialRectangle;html=1;whiteSpace=wrap;connectable=0;overflow=hidden;fillColor=none;top=0;left=0;bottom=0;right=0;pointerEvents=1;" vertex="1" parent="1mE4GKevzYRWsdsXhcsj-17">
                    <mxGeometry x="74" width="74" height="40" as="geometry">
                        <mxRectangle width="74" height="40" as="alternateBounds"/>
                    </mxGeometry>
                </mxCell>
                <mxCell id="1mE4GKevzYRWsdsXhcsj-19" value="Drug" style="shape=partialRectangle;html=1;whiteSpace=wrap;connectable=0;overflow=hidden;fillColor=none;top=0;left=0;bottom=0;right=0;pointerEvents=1;" vertex="1" parent="1mE4GKevzYRWsdsXhcsj-17">
                    <mxGeometry x="148" width="74" height="40" as="geometry">
                        <mxRectangle width="74" height="40" as="alternateBounds"/>
                    </mxGeometry>
                </mxCell>
                <mxCell id="1mE4GKevzYRWsdsXhcsj-20" value="Feature_1" style="shape=partialRectangle;html=1;whiteSpace=wrap;connectable=0;overflow=hidden;fillColor=none;top=0;left=0;bottom=0;right=0;pointerEvents=1;" vertex="1" parent="1mE4GKevzYRWsdsXhcsj-17">
                    <mxGeometry x="222" width="74" height="40" as="geometry">
                        <mxRectangle width="74" height="40" as="alternateBounds"/>
                    </mxGeometry>
                </mxCell>
                <mxCell id="1mE4GKevzYRWsdsXhcsj-21" value="Feature_2" style="shape=partialRectangle;html=1;whiteSpace=wrap;connectable=0;overflow=hidden;fillColor=none;top=0;left=0;bottom=0;right=0;pointerEvents=1;" vertex="1" parent="1mE4GKevzYRWsdsXhcsj-17">
                    <mxGeometry x="296" width="74" height="40" as="geometry">
                        <mxRectangle width="74" height="40" as="alternateBounds"/>
                    </mxGeometry>
                </mxCell>
                <mxCell id="1mE4GKevzYRWsdsXhcsj-37" value="Care_Unit" style="shape=partialRectangle;html=1;whiteSpace=wrap;connectable=0;overflow=hidden;fillColor=none;top=0;left=0;bottom=0;right=0;pointerEvents=1;" vertex="1" parent="1mE4GKevzYRWsdsXhcsj-17">
                    <mxGeometry x="370" width="74" height="40" as="geometry">
                        <mxRectangle width="74" height="40" as="alternateBounds"/>
                    </mxGeometry>
                </mxCell>
                <mxCell id="1mE4GKevzYRWsdsXhcsj-22" value="" style="shape=partialRectangle;collapsible=0;dropTarget=0;pointerEvents=0;fillColor=none;top=0;left=0;bottom=0;right=0;points=[[0,0.5],[1,0.5]];portConstraint=eastwest;" vertex="1" parent="1mE4GKevzYRWsdsXhcsj-16">
                    <mxGeometry y="40" width="444" height="40" as="geometry"/>
                </mxCell>
                <mxCell id="1mE4GKevzYRWsdsXhcsj-42" value="1" style="shape=partialRectangle;html=1;whiteSpace=wrap;connectable=0;overflow=hidden;fillColor=none;top=0;left=0;bottom=0;right=0;pointerEvents=1;" vertex="1" parent="1mE4GKevzYRWsdsXhcsj-22">
                    <mxGeometry width="74" height="40" as="geometry">
                        <mxRectangle width="74" height="40" as="alternateBounds"/>
                    </mxGeometry>
                </mxCell>
                <mxCell id="1mE4GKevzYRWsdsXhcsj-23" value="t1" style="shape=partialRectangle;html=1;whiteSpace=wrap;connectable=0;overflow=hidden;fillColor=none;top=0;left=0;bottom=0;right=0;pointerEvents=1;" vertex="1" parent="1mE4GKevzYRWsdsXhcsj-22">
                    <mxGeometry x="74" width="74" height="40" as="geometry">
                        <mxRectangle width="74" height="40" as="alternateBounds"/>
                    </mxGeometry>
                </mxCell>
                <mxCell id="1mE4GKevzYRWsdsXhcsj-24" value="[d_1,...,d_n]" style="shape=partialRectangle;html=1;whiteSpace=wrap;connectable=0;overflow=hidden;fillColor=none;top=0;left=0;bottom=0;right=0;pointerEvents=1;" vertex="1" parent="1mE4GKevzYRWsdsXhcsj-22">
                    <mxGeometry x="148" width="74" height="40" as="geometry">
                        <mxRectangle width="74" height="40" as="alternateBounds"/>
                    </mxGeometry>
                </mxCell>
                <mxCell id="1mE4GKevzYRWsdsXhcsj-25" value="" style="shape=partialRectangle;html=1;whiteSpace=wrap;connectable=0;overflow=hidden;fillColor=none;top=0;left=0;bottom=0;right=0;pointerEvents=1;" vertex="1" parent="1mE4GKevzYRWsdsXhcsj-22">
                    <mxGeometry x="222" width="74" height="40" as="geometry">
                        <mxRectangle width="74" height="40" as="alternateBounds"/>
                    </mxGeometry>
                </mxCell>
                <mxCell id="1mE4GKevzYRWsdsXhcsj-26" value="" style="shape=partialRectangle;html=1;whiteSpace=wrap;connectable=0;overflow=hidden;fillColor=none;top=0;left=0;bottom=0;right=0;pointerEvents=1;" vertex="1" parent="1mE4GKevzYRWsdsXhcsj-22">
                    <mxGeometry x="296" width="74" height="40" as="geometry">
                        <mxRectangle width="74" height="40" as="alternateBounds"/>
                    </mxGeometry>
                </mxCell>
                <mxCell id="1mE4GKevzYRWsdsXhcsj-38" value="A" style="shape=partialRectangle;html=1;whiteSpace=wrap;connectable=0;overflow=hidden;fillColor=none;top=0;left=0;bottom=0;right=0;pointerEvents=1;" vertex="1" parent="1mE4GKevzYRWsdsXhcsj-22">
                    <mxGeometry x="370" width="74" height="40" as="geometry">
                        <mxRectangle width="74" height="40" as="alternateBounds"/>
                    </mxGeometry>
                </mxCell>
                <mxCell id="1mE4GKevzYRWsdsXhcsj-27" value="" style="shape=partialRectangle;collapsible=0;dropTarget=0;pointerEvents=0;fillColor=none;top=0;left=0;bottom=0;right=0;points=[[0,0.5],[1,0.5]];portConstraint=eastwest;" vertex="1" parent="1mE4GKevzYRWsdsXhcsj-16">
                    <mxGeometry y="80" width="444" height="40" as="geometry"/>
                </mxCell>
                <mxCell id="1mE4GKevzYRWsdsXhcsj-43" value="1" style="shape=partialRectangle;html=1;whiteSpace=wrap;connectable=0;overflow=hidden;fillColor=none;top=0;left=0;bottom=0;right=0;pointerEvents=1;" vertex="1" parent="1mE4GKevzYRWsdsXhcsj-27">
                    <mxGeometry width="74" height="40" as="geometry">
                        <mxRectangle width="74" height="40" as="alternateBounds"/>
                    </mxGeometry>
                </mxCell>
                <mxCell id="1mE4GKevzYRWsdsXhcsj-28" value="t2" style="shape=partialRectangle;html=1;whiteSpace=wrap;connectable=0;overflow=hidden;fillColor=none;top=0;left=0;bottom=0;right=0;pointerEvents=1;" vertex="1" parent="1mE4GKevzYRWsdsXhcsj-27">
                    <mxGeometry x="74" width="74" height="40" as="geometry">
                        <mxRectangle width="74" height="40" as="alternateBounds"/>
                    </mxGeometry>
                </mxCell>
                <mxCell id="1mE4GKevzYRWsdsXhcsj-29" value="" style="shape=partialRectangle;html=1;whiteSpace=wrap;connectable=0;overflow=hidden;fillColor=none;top=0;left=0;bottom=0;right=0;pointerEvents=1;" vertex="1" parent="1mE4GKevzYRWsdsXhcsj-27">
                    <mxGeometry x="148" width="74" height="40" as="geometry">
                        <mxRectangle width="74" height="40" as="alternateBounds"/>
                    </mxGeometry>
                </mxCell>
                <mxCell id="1mE4GKevzYRWsdsXhcsj-30" value="" style="shape=partialRectangle;html=1;whiteSpace=wrap;connectable=0;overflow=hidden;fillColor=none;top=0;left=0;bottom=0;right=0;pointerEvents=1;" vertex="1" parent="1mE4GKevzYRWsdsXhcsj-27">
                    <mxGeometry x="222" width="74" height="40" as="geometry">
                        <mxRectangle width="74" height="40" as="alternateBounds"/>
                    </mxGeometry>
                </mxCell>
                <mxCell id="1mE4GKevzYRWsdsXhcsj-31" value="" style="shape=partialRectangle;html=1;whiteSpace=wrap;connectable=0;overflow=hidden;fillColor=none;top=0;left=0;bottom=0;right=0;pointerEvents=1;" vertex="1" parent="1mE4GKevzYRWsdsXhcsj-27">
                    <mxGeometry x="296" width="74" height="40" as="geometry">
                        <mxRectangle width="74" height="40" as="alternateBounds"/>
                    </mxGeometry>
                </mxCell>
                <mxCell id="1mE4GKevzYRWsdsXhcsj-39" value="A" style="shape=partialRectangle;html=1;whiteSpace=wrap;connectable=0;overflow=hidden;fillColor=none;top=0;left=0;bottom=0;right=0;pointerEvents=1;" vertex="1" parent="1mE4GKevzYRWsdsXhcsj-27">
                    <mxGeometry x="370" width="74" height="40" as="geometry">
                        <mxRectangle width="74" height="40" as="alternateBounds"/>
                    </mxGeometry>
                </mxCell>
                <mxCell id="1mE4GKevzYRWsdsXhcsj-32" value="" style="shape=partialRectangle;collapsible=0;dropTarget=0;pointerEvents=0;fillColor=none;top=0;left=0;bottom=0;right=0;points=[[0,0.5],[1,0.5]];portConstraint=eastwest;" vertex="1" parent="1mE4GKevzYRWsdsXhcsj-16">
                    <mxGeometry y="120" width="444" height="40" as="geometry"/>
                </mxCell>
                <mxCell id="1mE4GKevzYRWsdsXhcsj-44" value="1" style="shape=partialRectangle;html=1;whiteSpace=wrap;connectable=0;overflow=hidden;fillColor=none;top=0;left=0;bottom=0;right=0;pointerEvents=1;" vertex="1" parent="1mE4GKevzYRWsdsXhcsj-32">
                    <mxGeometry width="74" height="40" as="geometry">
                        <mxRectangle width="74" height="40" as="alternateBounds"/>
                    </mxGeometry>
                </mxCell>
                <mxCell id="1mE4GKevzYRWsdsXhcsj-33" value="t3" style="shape=partialRectangle;html=1;whiteSpace=wrap;connectable=0;overflow=hidden;fillColor=none;top=0;left=0;bottom=0;right=0;pointerEvents=1;" vertex="1" parent="1mE4GKevzYRWsdsXhcsj-32">
                    <mxGeometry x="74" width="74" height="40" as="geometry">
                        <mxRectangle width="74" height="40" as="alternateBounds"/>
                    </mxGeometry>
                </mxCell>
                <mxCell id="1mE4GKevzYRWsdsXhcsj-34" value="" style="shape=partialRectangle;html=1;whiteSpace=wrap;connectable=0;overflow=hidden;fillColor=none;top=0;left=0;bottom=0;right=0;pointerEvents=1;" vertex="1" parent="1mE4GKevzYRWsdsXhcsj-32">
                    <mxGeometry x="148" width="74" height="40" as="geometry">
                        <mxRectangle width="74" height="40" as="alternateBounds"/>
                    </mxGeometry>
                </mxCell>
                <mxCell id="1mE4GKevzYRWsdsXhcsj-35" value="" style="shape=partialRectangle;html=1;whiteSpace=wrap;connectable=0;overflow=hidden;fillColor=none;top=0;left=0;bottom=0;right=0;pointerEvents=1;" vertex="1" parent="1mE4GKevzYRWsdsXhcsj-32">
                    <mxGeometry x="222" width="74" height="40" as="geometry">
                        <mxRectangle width="74" height="40" as="alternateBounds"/>
                    </mxGeometry>
                </mxCell>
                <mxCell id="1mE4GKevzYRWsdsXhcsj-36" value="" style="shape=partialRectangle;html=1;whiteSpace=wrap;connectable=0;overflow=hidden;fillColor=none;top=0;left=0;bottom=0;right=0;pointerEvents=1;" vertex="1" parent="1mE4GKevzYRWsdsXhcsj-32">
                    <mxGeometry x="296" width="74" height="40" as="geometry">
                        <mxRectangle width="74" height="40" as="alternateBounds"/>
                    </mxGeometry>
                </mxCell>
                <mxCell id="1mE4GKevzYRWsdsXhcsj-40" value="A" style="shape=partialRectangle;html=1;whiteSpace=wrap;connectable=0;overflow=hidden;fillColor=none;top=0;left=0;bottom=0;right=0;pointerEvents=1;" vertex="1" parent="1mE4GKevzYRWsdsXhcsj-32">
                    <mxGeometry x="370" width="74" height="40" as="geometry">
                        <mxRectangle width="74" height="40" as="alternateBounds"/>
                    </mxGeometry>
                </mxCell>
                <mxCell id="1mE4GKevzYRWsdsXhcsj-47" value="" style="shape=table;startSize=0;container=1;collapsible=0;childLayout=tableLayout;fillColor=#647687;fontColor=#ffffff;strokeColor=#314354;" vertex="1" parent="QS4Drok9mOWs24paeTdG-1">
                    <mxGeometry x="160" y="200" width="444" height="120" as="geometry"/>
                </mxCell>
                <mxCell id="1mE4GKevzYRWsdsXhcsj-48" value="" style="shape=partialRectangle;collapsible=0;dropTarget=0;pointerEvents=0;fillColor=none;top=0;left=0;bottom=0;right=0;points=[[0,0.5],[1,0.5]];portConstraint=eastwest;" vertex="1" parent="1mE4GKevzYRWsdsXhcsj-47">
                    <mxGeometry width="444" height="40" as="geometry"/>
                </mxCell>
                <mxCell id="1mE4GKevzYRWsdsXhcsj-49" value="Patient_ID" style="shape=partialRectangle;html=1;whiteSpace=wrap;connectable=0;overflow=hidden;fillColor=none;top=0;left=0;bottom=0;right=0;pointerEvents=1;" vertex="1" parent="1mE4GKevzYRWsdsXhcsj-48">
                    <mxGeometry width="74" height="40" as="geometry">
                        <mxRectangle width="74" height="40" as="alternateBounds"/>
                    </mxGeometry>
                </mxCell>
                <mxCell id="1mE4GKevzYRWsdsXhcsj-50" value="Time_step" style="shape=partialRectangle;html=1;whiteSpace=wrap;connectable=0;overflow=hidden;fillColor=none;top=0;left=0;bottom=0;right=0;pointerEvents=1;" vertex="1" parent="1mE4GKevzYRWsdsXhcsj-48">
                    <mxGeometry x="74" width="74" height="40" as="geometry">
                        <mxRectangle width="74" height="40" as="alternateBounds"/>
                    </mxGeometry>
                </mxCell>
                <mxCell id="1mE4GKevzYRWsdsXhcsj-51" value="Drug" style="shape=partialRectangle;html=1;whiteSpace=wrap;connectable=0;overflow=hidden;fillColor=none;top=0;left=0;bottom=0;right=0;pointerEvents=1;" vertex="1" parent="1mE4GKevzYRWsdsXhcsj-48">
                    <mxGeometry x="148" width="74" height="40" as="geometry">
                        <mxRectangle width="74" height="40" as="alternateBounds"/>
                    </mxGeometry>
                </mxCell>
                <mxCell id="1mE4GKevzYRWsdsXhcsj-52" value="Feature_1" style="shape=partialRectangle;html=1;whiteSpace=wrap;connectable=0;overflow=hidden;fillColor=none;top=0;left=0;bottom=0;right=0;pointerEvents=1;" vertex="1" parent="1mE4GKevzYRWsdsXhcsj-48">
                    <mxGeometry x="222" width="74" height="40" as="geometry">
                        <mxRectangle width="74" height="40" as="alternateBounds"/>
                    </mxGeometry>
                </mxCell>
                <mxCell id="1mE4GKevzYRWsdsXhcsj-53" value="Feature_2" style="shape=partialRectangle;html=1;whiteSpace=wrap;connectable=0;overflow=hidden;fillColor=none;top=0;left=0;bottom=0;right=0;pointerEvents=1;" vertex="1" parent="1mE4GKevzYRWsdsXhcsj-48">
                    <mxGeometry x="296" width="74" height="40" as="geometry">
                        <mxRectangle width="74" height="40" as="alternateBounds"/>
                    </mxGeometry>
                </mxCell>
                <mxCell id="1mE4GKevzYRWsdsXhcsj-54" value="Care_Unit" style="shape=partialRectangle;html=1;whiteSpace=wrap;connectable=0;overflow=hidden;fillColor=none;top=0;left=0;bottom=0;right=0;pointerEvents=1;" vertex="1" parent="1mE4GKevzYRWsdsXhcsj-48">
                    <mxGeometry x="370" width="74" height="40" as="geometry">
                        <mxRectangle width="74" height="40" as="alternateBounds"/>
                    </mxGeometry>
                </mxCell>
                <mxCell id="1mE4GKevzYRWsdsXhcsj-55" value="" style="shape=partialRectangle;collapsible=0;dropTarget=0;pointerEvents=0;fillColor=none;top=0;left=0;bottom=0;right=0;points=[[0,0.5],[1,0.5]];portConstraint=eastwest;" vertex="1" parent="1mE4GKevzYRWsdsXhcsj-47">
                    <mxGeometry y="40" width="444" height="40" as="geometry"/>
                </mxCell>
                <mxCell id="1mE4GKevzYRWsdsXhcsj-56" value="1" style="shape=partialRectangle;html=1;whiteSpace=wrap;connectable=0;overflow=hidden;fillColor=none;top=0;left=0;bottom=0;right=0;pointerEvents=1;" vertex="1" parent="1mE4GKevzYRWsdsXhcsj-55">
                    <mxGeometry width="74" height="40" as="geometry">
                        <mxRectangle width="74" height="40" as="alternateBounds"/>
                    </mxGeometry>
                </mxCell>
                <mxCell id="1mE4GKevzYRWsdsXhcsj-57" value="t4" style="shape=partialRectangle;html=1;whiteSpace=wrap;connectable=0;overflow=hidden;fillColor=none;top=0;left=0;bottom=0;right=0;pointerEvents=1;" vertex="1" parent="1mE4GKevzYRWsdsXhcsj-55">
                    <mxGeometry x="74" width="74" height="40" as="geometry">
                        <mxRectangle width="74" height="40" as="alternateBounds"/>
                    </mxGeometry>
                </mxCell>
                <mxCell id="1mE4GKevzYRWsdsXhcsj-58" value="" style="shape=partialRectangle;html=1;whiteSpace=wrap;connectable=0;overflow=hidden;fillColor=none;top=0;left=0;bottom=0;right=0;pointerEvents=1;" vertex="1" parent="1mE4GKevzYRWsdsXhcsj-55">
                    <mxGeometry x="148" width="74" height="40" as="geometry">
                        <mxRectangle width="74" height="40" as="alternateBounds"/>
                    </mxGeometry>
                </mxCell>
                <mxCell id="1mE4GKevzYRWsdsXhcsj-59" value="" style="shape=partialRectangle;html=1;whiteSpace=wrap;connectable=0;overflow=hidden;fillColor=none;top=0;left=0;bottom=0;right=0;pointerEvents=1;" vertex="1" parent="1mE4GKevzYRWsdsXhcsj-55">
                    <mxGeometry x="222" width="74" height="40" as="geometry">
                        <mxRectangle width="74" height="40" as="alternateBounds"/>
                    </mxGeometry>
                </mxCell>
                <mxCell id="1mE4GKevzYRWsdsXhcsj-60" value="" style="shape=partialRectangle;html=1;whiteSpace=wrap;connectable=0;overflow=hidden;fillColor=none;top=0;left=0;bottom=0;right=0;pointerEvents=1;" vertex="1" parent="1mE4GKevzYRWsdsXhcsj-55">
                    <mxGeometry x="296" width="74" height="40" as="geometry">
                        <mxRectangle width="74" height="40" as="alternateBounds"/>
                    </mxGeometry>
                </mxCell>
                <mxCell id="1mE4GKevzYRWsdsXhcsj-61" value="B" style="shape=partialRectangle;html=1;whiteSpace=wrap;connectable=0;overflow=hidden;fillColor=none;top=0;left=0;bottom=0;right=0;pointerEvents=1;" vertex="1" parent="1mE4GKevzYRWsdsXhcsj-55">
                    <mxGeometry x="370" width="74" height="40" as="geometry">
                        <mxRectangle width="74" height="40" as="alternateBounds"/>
                    </mxGeometry>
                </mxCell>
                <mxCell id="1mE4GKevzYRWsdsXhcsj-62" value="" style="shape=partialRectangle;collapsible=0;dropTarget=0;pointerEvents=0;fillColor=none;top=0;left=0;bottom=0;right=0;points=[[0,0.5],[1,0.5]];portConstraint=eastwest;" vertex="1" parent="1mE4GKevzYRWsdsXhcsj-47">
                    <mxGeometry y="80" width="444" height="40" as="geometry"/>
                </mxCell>
                <mxCell id="1mE4GKevzYRWsdsXhcsj-63" value="1" style="shape=partialRectangle;html=1;whiteSpace=wrap;connectable=0;overflow=hidden;fillColor=none;top=0;left=0;bottom=0;right=0;pointerEvents=1;" vertex="1" parent="1mE4GKevzYRWsdsXhcsj-62">
                    <mxGeometry width="74" height="40" as="geometry">
                        <mxRectangle width="74" height="40" as="alternateBounds"/>
                    </mxGeometry>
                </mxCell>
                <mxCell id="1mE4GKevzYRWsdsXhcsj-64" value="t5" style="shape=partialRectangle;html=1;whiteSpace=wrap;connectable=0;overflow=hidden;fillColor=none;top=0;left=0;bottom=0;right=0;pointerEvents=1;" vertex="1" parent="1mE4GKevzYRWsdsXhcsj-62">
                    <mxGeometry x="74" width="74" height="40" as="geometry">
                        <mxRectangle width="74" height="40" as="alternateBounds"/>
                    </mxGeometry>
                </mxCell>
                <mxCell id="1mE4GKevzYRWsdsXhcsj-65" value="" style="shape=partialRectangle;html=1;whiteSpace=wrap;connectable=0;overflow=hidden;fillColor=none;top=0;left=0;bottom=0;right=0;pointerEvents=1;" vertex="1" parent="1mE4GKevzYRWsdsXhcsj-62">
                    <mxGeometry x="148" width="74" height="40" as="geometry">
                        <mxRectangle width="74" height="40" as="alternateBounds"/>
                    </mxGeometry>
                </mxCell>
                <mxCell id="1mE4GKevzYRWsdsXhcsj-66" value="" style="shape=partialRectangle;html=1;whiteSpace=wrap;connectable=0;overflow=hidden;fillColor=none;top=0;left=0;bottom=0;right=0;pointerEvents=1;" vertex="1" parent="1mE4GKevzYRWsdsXhcsj-62">
                    <mxGeometry x="222" width="74" height="40" as="geometry">
                        <mxRectangle width="74" height="40" as="alternateBounds"/>
                    </mxGeometry>
                </mxCell>
                <mxCell id="1mE4GKevzYRWsdsXhcsj-67" value="" style="shape=partialRectangle;html=1;whiteSpace=wrap;connectable=0;overflow=hidden;fillColor=none;top=0;left=0;bottom=0;right=0;pointerEvents=1;" vertex="1" parent="1mE4GKevzYRWsdsXhcsj-62">
                    <mxGeometry x="296" width="74" height="40" as="geometry">
                        <mxRectangle width="74" height="40" as="alternateBounds"/>
                    </mxGeometry>
                </mxCell>
                <mxCell id="1mE4GKevzYRWsdsXhcsj-68" value="B" style="shape=partialRectangle;html=1;whiteSpace=wrap;connectable=0;overflow=hidden;fillColor=none;top=0;left=0;bottom=0;right=0;pointerEvents=1;" vertex="1" parent="1mE4GKevzYRWsdsXhcsj-62">
                    <mxGeometry x="370" width="74" height="40" as="geometry">
                        <mxRectangle width="74" height="40" as="alternateBounds"/>
                    </mxGeometry>
                </mxCell>
                <mxCell id="1mE4GKevzYRWsdsXhcsj-76" value="" style="shape=table;startSize=0;container=1;collapsible=0;childLayout=tableLayout;fillColor=#647687;fontColor=#ffffff;strokeColor=#314354;" vertex="1" parent="QS4Drok9mOWs24paeTdG-1">
                    <mxGeometry x="160" y="330" width="444" height="160" as="geometry"/>
                </mxCell>
                <mxCell id="1mE4GKevzYRWsdsXhcsj-77" value="" style="shape=partialRectangle;collapsible=0;dropTarget=0;pointerEvents=0;fillColor=none;top=0;left=0;bottom=0;right=0;points=[[0,0.5],[1,0.5]];portConstraint=eastwest;" vertex="1" parent="1mE4GKevzYRWsdsXhcsj-76">
                    <mxGeometry width="444" height="40" as="geometry"/>
                </mxCell>
                <mxCell id="1mE4GKevzYRWsdsXhcsj-78" value="Patient_ID" style="shape=partialRectangle;html=1;whiteSpace=wrap;connectable=0;overflow=hidden;fillColor=none;top=0;left=0;bottom=0;right=0;pointerEvents=1;" vertex="1" parent="1mE4GKevzYRWsdsXhcsj-77">
                    <mxGeometry width="74" height="40" as="geometry">
                        <mxRectangle width="74" height="40" as="alternateBounds"/>
                    </mxGeometry>
                </mxCell>
                <mxCell id="1mE4GKevzYRWsdsXhcsj-79" value="Time_step" style="shape=partialRectangle;html=1;whiteSpace=wrap;connectable=0;overflow=hidden;fillColor=none;top=0;left=0;bottom=0;right=0;pointerEvents=1;" vertex="1" parent="1mE4GKevzYRWsdsXhcsj-77">
                    <mxGeometry x="74" width="74" height="40" as="geometry">
                        <mxRectangle width="74" height="40" as="alternateBounds"/>
                    </mxGeometry>
                </mxCell>
                <mxCell id="1mE4GKevzYRWsdsXhcsj-80" value="Drug" style="shape=partialRectangle;html=1;whiteSpace=wrap;connectable=0;overflow=hidden;fillColor=none;top=0;left=0;bottom=0;right=0;pointerEvents=1;" vertex="1" parent="1mE4GKevzYRWsdsXhcsj-77">
                    <mxGeometry x="148" width="74" height="40" as="geometry">
                        <mxRectangle width="74" height="40" as="alternateBounds"/>
                    </mxGeometry>
                </mxCell>
                <mxCell id="1mE4GKevzYRWsdsXhcsj-81" value="Feature_1" style="shape=partialRectangle;html=1;whiteSpace=wrap;connectable=0;overflow=hidden;fillColor=none;top=0;left=0;bottom=0;right=0;pointerEvents=1;" vertex="1" parent="1mE4GKevzYRWsdsXhcsj-77">
                    <mxGeometry x="222" width="74" height="40" as="geometry">
                        <mxRectangle width="74" height="40" as="alternateBounds"/>
                    </mxGeometry>
                </mxCell>
                <mxCell id="1mE4GKevzYRWsdsXhcsj-82" value="Feature_2" style="shape=partialRectangle;html=1;whiteSpace=wrap;connectable=0;overflow=hidden;fillColor=none;top=0;left=0;bottom=0;right=0;pointerEvents=1;" vertex="1" parent="1mE4GKevzYRWsdsXhcsj-77">
                    <mxGeometry x="296" width="74" height="40" as="geometry">
                        <mxRectangle width="74" height="40" as="alternateBounds"/>
                    </mxGeometry>
                </mxCell>
                <mxCell id="1mE4GKevzYRWsdsXhcsj-83" value="Care_Unit" style="shape=partialRectangle;html=1;whiteSpace=wrap;connectable=0;overflow=hidden;fillColor=none;top=0;left=0;bottom=0;right=0;pointerEvents=1;" vertex="1" parent="1mE4GKevzYRWsdsXhcsj-77">
                    <mxGeometry x="370" width="74" height="40" as="geometry">
                        <mxRectangle width="74" height="40" as="alternateBounds"/>
                    </mxGeometry>
                </mxCell>
                <mxCell id="1mE4GKevzYRWsdsXhcsj-84" value="" style="shape=partialRectangle;collapsible=0;dropTarget=0;pointerEvents=0;fillColor=none;top=0;left=0;bottom=0;right=0;points=[[0,0.5],[1,0.5]];portConstraint=eastwest;" vertex="1" parent="1mE4GKevzYRWsdsXhcsj-76">
                    <mxGeometry y="40" width="444" height="40" as="geometry"/>
                </mxCell>
                <mxCell id="1mE4GKevzYRWsdsXhcsj-85" value="1" style="shape=partialRectangle;html=1;whiteSpace=wrap;connectable=0;overflow=hidden;fillColor=none;top=0;left=0;bottom=0;right=0;pointerEvents=1;" vertex="1" parent="1mE4GKevzYRWsdsXhcsj-84">
                    <mxGeometry width="74" height="40" as="geometry">
                        <mxRectangle width="74" height="40" as="alternateBounds"/>
                    </mxGeometry>
                </mxCell>
                <mxCell id="1mE4GKevzYRWsdsXhcsj-86" value="t6" style="shape=partialRectangle;html=1;whiteSpace=wrap;connectable=0;overflow=hidden;fillColor=none;top=0;left=0;bottom=0;right=0;pointerEvents=1;" vertex="1" parent="1mE4GKevzYRWsdsXhcsj-84">
                    <mxGeometry x="74" width="74" height="40" as="geometry">
                        <mxRectangle width="74" height="40" as="alternateBounds"/>
                    </mxGeometry>
                </mxCell>
                <mxCell id="1mE4GKevzYRWsdsXhcsj-87" value="" style="shape=partialRectangle;html=1;whiteSpace=wrap;connectable=0;overflow=hidden;fillColor=none;top=0;left=0;bottom=0;right=0;pointerEvents=1;" vertex="1" parent="1mE4GKevzYRWsdsXhcsj-84">
                    <mxGeometry x="148" width="74" height="40" as="geometry">
                        <mxRectangle width="74" height="40" as="alternateBounds"/>
                    </mxGeometry>
                </mxCell>
                <mxCell id="1mE4GKevzYRWsdsXhcsj-88" value="" style="shape=partialRectangle;html=1;whiteSpace=wrap;connectable=0;overflow=hidden;fillColor=none;top=0;left=0;bottom=0;right=0;pointerEvents=1;" vertex="1" parent="1mE4GKevzYRWsdsXhcsj-84">
                    <mxGeometry x="222" width="74" height="40" as="geometry">
                        <mxRectangle width="74" height="40" as="alternateBounds"/>
                    </mxGeometry>
                </mxCell>
                <mxCell id="1mE4GKevzYRWsdsXhcsj-89" value="" style="shape=partialRectangle;html=1;whiteSpace=wrap;connectable=0;overflow=hidden;fillColor=none;top=0;left=0;bottom=0;right=0;pointerEvents=1;" vertex="1" parent="1mE4GKevzYRWsdsXhcsj-84">
                    <mxGeometry x="296" width="74" height="40" as="geometry">
                        <mxRectangle width="74" height="40" as="alternateBounds"/>
                    </mxGeometry>
                </mxCell>
                <mxCell id="1mE4GKevzYRWsdsXhcsj-90" value="C" style="shape=partialRectangle;html=1;whiteSpace=wrap;connectable=0;overflow=hidden;fillColor=none;top=0;left=0;bottom=0;right=0;pointerEvents=1;" vertex="1" parent="1mE4GKevzYRWsdsXhcsj-84">
                    <mxGeometry x="370" width="74" height="40" as="geometry">
                        <mxRectangle width="74" height="40" as="alternateBounds"/>
                    </mxGeometry>
                </mxCell>
                <mxCell id="1mE4GKevzYRWsdsXhcsj-91" value="" style="shape=partialRectangle;collapsible=0;dropTarget=0;pointerEvents=0;fillColor=none;top=0;left=0;bottom=0;right=0;points=[[0,0.5],[1,0.5]];portConstraint=eastwest;" vertex="1" parent="1mE4GKevzYRWsdsXhcsj-76">
                    <mxGeometry y="80" width="444" height="40" as="geometry"/>
                </mxCell>
                <mxCell id="1mE4GKevzYRWsdsXhcsj-92" value="1" style="shape=partialRectangle;html=1;whiteSpace=wrap;connectable=0;overflow=hidden;fillColor=none;top=0;left=0;bottom=0;right=0;pointerEvents=1;" vertex="1" parent="1mE4GKevzYRWsdsXhcsj-91">
                    <mxGeometry width="74" height="40" as="geometry">
                        <mxRectangle width="74" height="40" as="alternateBounds"/>
                    </mxGeometry>
                </mxCell>
                <mxCell id="1mE4GKevzYRWsdsXhcsj-93" value="t7" style="shape=partialRectangle;html=1;whiteSpace=wrap;connectable=0;overflow=hidden;fillColor=none;top=0;left=0;bottom=0;right=0;pointerEvents=1;" vertex="1" parent="1mE4GKevzYRWsdsXhcsj-91">
                    <mxGeometry x="74" width="74" height="40" as="geometry">
                        <mxRectangle width="74" height="40" as="alternateBounds"/>
                    </mxGeometry>
                </mxCell>
                <mxCell id="1mE4GKevzYRWsdsXhcsj-94" value="" style="shape=partialRectangle;html=1;whiteSpace=wrap;connectable=0;overflow=hidden;fillColor=none;top=0;left=0;bottom=0;right=0;pointerEvents=1;" vertex="1" parent="1mE4GKevzYRWsdsXhcsj-91">
                    <mxGeometry x="148" width="74" height="40" as="geometry">
                        <mxRectangle width="74" height="40" as="alternateBounds"/>
                    </mxGeometry>
                </mxCell>
                <mxCell id="1mE4GKevzYRWsdsXhcsj-95" value="" style="shape=partialRectangle;html=1;whiteSpace=wrap;connectable=0;overflow=hidden;fillColor=none;top=0;left=0;bottom=0;right=0;pointerEvents=1;" vertex="1" parent="1mE4GKevzYRWsdsXhcsj-91">
                    <mxGeometry x="222" width="74" height="40" as="geometry">
                        <mxRectangle width="74" height="40" as="alternateBounds"/>
                    </mxGeometry>
                </mxCell>
                <mxCell id="1mE4GKevzYRWsdsXhcsj-96" value="" style="shape=partialRectangle;html=1;whiteSpace=wrap;connectable=0;overflow=hidden;fillColor=none;top=0;left=0;bottom=0;right=0;pointerEvents=1;" vertex="1" parent="1mE4GKevzYRWsdsXhcsj-91">
                    <mxGeometry x="296" width="74" height="40" as="geometry">
                        <mxRectangle width="74" height="40" as="alternateBounds"/>
                    </mxGeometry>
                </mxCell>
                <mxCell id="1mE4GKevzYRWsdsXhcsj-97" value="C" style="shape=partialRectangle;html=1;whiteSpace=wrap;connectable=0;overflow=hidden;fillColor=none;top=0;left=0;bottom=0;right=0;pointerEvents=1;" vertex="1" parent="1mE4GKevzYRWsdsXhcsj-91">
                    <mxGeometry x="370" width="74" height="40" as="geometry">
                        <mxRectangle width="74" height="40" as="alternateBounds"/>
                    </mxGeometry>
                </mxCell>
                <mxCell id="1mE4GKevzYRWsdsXhcsj-98" value="" style="shape=partialRectangle;collapsible=0;dropTarget=0;pointerEvents=0;fillColor=none;top=0;left=0;bottom=0;right=0;points=[[0,0.5],[1,0.5]];portConstraint=eastwest;" vertex="1" parent="1mE4GKevzYRWsdsXhcsj-76">
                    <mxGeometry y="120" width="444" height="40" as="geometry"/>
                </mxCell>
                <mxCell id="1mE4GKevzYRWsdsXhcsj-99" value="1" style="shape=partialRectangle;html=1;whiteSpace=wrap;connectable=0;overflow=hidden;fillColor=none;top=0;left=0;bottom=0;right=0;pointerEvents=1;" vertex="1" parent="1mE4GKevzYRWsdsXhcsj-98">
                    <mxGeometry width="74" height="40" as="geometry">
                        <mxRectangle width="74" height="40" as="alternateBounds"/>
                    </mxGeometry>
                </mxCell>
                <mxCell id="1mE4GKevzYRWsdsXhcsj-100" value="t8" style="shape=partialRectangle;html=1;whiteSpace=wrap;connectable=0;overflow=hidden;fillColor=none;top=0;left=0;bottom=0;right=0;pointerEvents=1;" vertex="1" parent="1mE4GKevzYRWsdsXhcsj-98">
                    <mxGeometry x="74" width="74" height="40" as="geometry">
                        <mxRectangle width="74" height="40" as="alternateBounds"/>
                    </mxGeometry>
                </mxCell>
                <mxCell id="1mE4GKevzYRWsdsXhcsj-101" value="" style="shape=partialRectangle;html=1;whiteSpace=wrap;connectable=0;overflow=hidden;fillColor=none;top=0;left=0;bottom=0;right=0;pointerEvents=1;" vertex="1" parent="1mE4GKevzYRWsdsXhcsj-98">
                    <mxGeometry x="148" width="74" height="40" as="geometry">
                        <mxRectangle width="74" height="40" as="alternateBounds"/>
                    </mxGeometry>
                </mxCell>
                <mxCell id="1mE4GKevzYRWsdsXhcsj-102" value="" style="shape=partialRectangle;html=1;whiteSpace=wrap;connectable=0;overflow=hidden;fillColor=none;top=0;left=0;bottom=0;right=0;pointerEvents=1;" vertex="1" parent="1mE4GKevzYRWsdsXhcsj-98">
                    <mxGeometry x="222" width="74" height="40" as="geometry">
                        <mxRectangle width="74" height="40" as="alternateBounds"/>
                    </mxGeometry>
                </mxCell>
                <mxCell id="1mE4GKevzYRWsdsXhcsj-103" value="" style="shape=partialRectangle;html=1;whiteSpace=wrap;connectable=0;overflow=hidden;fillColor=none;top=0;left=0;bottom=0;right=0;pointerEvents=1;" vertex="1" parent="1mE4GKevzYRWsdsXhcsj-98">
                    <mxGeometry x="296" width="74" height="40" as="geometry">
                        <mxRectangle width="74" height="40" as="alternateBounds"/>
                    </mxGeometry>
                </mxCell>
                <mxCell id="1mE4GKevzYRWsdsXhcsj-104" value="C" style="shape=partialRectangle;html=1;whiteSpace=wrap;connectable=0;overflow=hidden;fillColor=none;top=0;left=0;bottom=0;right=0;pointerEvents=1;" vertex="1" parent="1mE4GKevzYRWsdsXhcsj-98">
                    <mxGeometry x="370" width="74" height="40" as="geometry">
                        <mxRectangle width="74" height="40" as="alternateBounds"/>
                    </mxGeometry>
                </mxCell>
                <mxCell id="1mE4GKevzYRWsdsXhcsj-106" style="edgeStyle=none;html=1;exitX=0.1;exitY=0.5;exitDx=0;exitDy=0;exitPerimeter=0;" edge="1" parent="QS4Drok9mOWs24paeTdG-1" source="1mE4GKevzYRWsdsXhcsj-105">
                    <mxGeometry relative="1" as="geometry">
                        <mxPoint x="650" y="210" as="targetPoint"/>
                    </mxGeometry>
                </mxCell>
                <mxCell id="1mE4GKevzYRWsdsXhcsj-107" style="edgeStyle=none;html=1;exitX=0.5;exitY=0;exitDx=0;exitDy=0;" edge="1" parent="QS4Drok9mOWs24paeTdG-1" source="1mE4GKevzYRWsdsXhcsj-105">
                    <mxGeometry relative="1" as="geometry">
                        <mxPoint x="650" y="10" as="targetPoint"/>
                    </mxGeometry>
                </mxCell>
                <mxCell id="1mE4GKevzYRWsdsXhcsj-105" value="" style="shape=curlyBracket;whiteSpace=wrap;html=1;rounded=1;flipH=1;fillColor=#647687;fontColor=#ffffff;strokeColor=#314354;" vertex="1" parent="QS4Drok9mOWs24paeTdG-1">
                    <mxGeometry x="640" y="30" width="20" height="460" as="geometry"/>
                </mxCell>
                <mxCell id="1mE4GKevzYRWsdsXhcsj-108" value="Batch 1" style="shape=ext;double=1;rounded=0;whiteSpace=wrap;html=1;fillColor=#647687;fontColor=#ffffff;strokeColor=#314354;" vertex="1" parent="QS4Drok9mOWs24paeTdG-1">
                    <mxGeometry x="680" y="200" width="120" height="80" as="geometry"/>
                </mxCell>
                <UserObject label="?utm_source=feed&amp;utm_medium=feed-articles&amp;utm_campaign=feed" link="data:page/id,obo6f8vcw2ZE0TzNYwZ1" id="p9vzQXL2b2qAdMFLWvf6-0">
                    <mxCell style="fontColor=#0000EE;fontStyle=4;rounded=1;overflow=hidden;spacing=10;" vertex="1" parent="QS4Drok9mOWs24paeTdG-1">
                        <mxGeometry x="-80" y="560" width="400" height="40" as="geometry"/>
                    </mxCell>
                </UserObject>
                <mxCell id="PR7mIF1Pic2x5FKpqR9e-1" style="edgeStyle=none;html=1;exitX=0.1;exitY=0.5;exitDx=0;exitDy=0;exitPerimeter=0;" edge="1" parent="QS4Drok9mOWs24paeTdG-1" source="PR7mIF1Pic2x5FKpqR9e-0">
                    <mxGeometry relative="1" as="geometry">
                        <mxPoint x="120" y="60" as="targetPoint"/>
                    </mxGeometry>
                </mxCell>
                <mxCell id="PR7mIF1Pic2x5FKpqR9e-0" value="" style="shape=curlyBracket;whiteSpace=wrap;html=1;rounded=1;fillColor=#647687;fontColor=#ffffff;strokeColor=#314354;" vertex="1" parent="QS4Drok9mOWs24paeTdG-1">
                    <mxGeometry x="100" y="30" width="20" height="160" as="geometry"/>
                </mxCell>
                <mxCell id="PR7mIF1Pic2x5FKpqR9e-2" style="edgeStyle=none;html=1;exitX=1;exitY=0.75;exitDx=0;exitDy=0;" edge="1" parent="QS4Drok9mOWs24paeTdG-1" source="PR7mIF1Pic2x5FKpqR9e-0" target="PR7mIF1Pic2x5FKpqR9e-0">
                    <mxGeometry relative="1" as="geometry"/>
                </mxCell>
                <mxCell id="PR7mIF1Pic2x5FKpqR9e-3" style="edgeStyle=none;html=1;exitX=0.1;exitY=0.5;exitDx=0;exitDy=0;exitPerimeter=0;entryX=0.404;entryY=0.797;entryDx=0;entryDy=0;entryPerimeter=0;" edge="1" parent="QS4Drok9mOWs24paeTdG-1" source="PR7mIF1Pic2x5FKpqR9e-0" target="PR7mIF1Pic2x5FKpqR9e-0">
                    <mxGeometry relative="1" as="geometry"/>
                </mxCell>
                <mxCell id="sK_IYHW3HZutUeJiy4_6-0" value="Transfer" style="shape=ext;double=1;rounded=0;whiteSpace=wrap;html=1;fillColor=#647687;fontColor=#ffffff;strokeColor=#314354;" vertex="1" parent="QS4Drok9mOWs24paeTdG-1">
                    <mxGeometry x="-40" y="70" width="120" height="80" as="geometry"/>
                </mxCell>
                <mxCell id="sK_IYHW3HZutUeJiy4_6-1" value="" style="shape=curlyBracket;whiteSpace=wrap;html=1;rounded=1;fillColor=#647687;fontColor=#ffffff;strokeColor=#314354;" vertex="1" parent="QS4Drok9mOWs24paeTdG-1">
                    <mxGeometry x="100" y="200" width="20" height="120" as="geometry"/>
                </mxCell>
                <mxCell id="sK_IYHW3HZutUeJiy4_6-5" value="" style="edgeStyle=none;html=1;" edge="1" parent="QS4Drok9mOWs24paeTdG-1" source="sK_IYHW3HZutUeJiy4_6-2" target="sK_IYHW3HZutUeJiy4_6-0">
                    <mxGeometry relative="1" as="geometry"/>
                </mxCell>
                <mxCell id="sK_IYHW3HZutUeJiy4_6-2" value="Transfer" style="shape=ext;double=1;rounded=0;whiteSpace=wrap;html=1;fillColor=#647687;fontColor=#ffffff;strokeColor=#314354;" vertex="1" parent="QS4Drok9mOWs24paeTdG-1">
                    <mxGeometry x="-40" y="220" width="120" height="80" as="geometry"/>
                </mxCell>
                <mxCell id="sK_IYHW3HZutUeJiy4_6-3" value="" style="shape=curlyBracket;whiteSpace=wrap;html=1;rounded=1;fillColor=#647687;fontColor=#ffffff;strokeColor=#314354;" vertex="1" parent="QS4Drok9mOWs24paeTdG-1">
                    <mxGeometry x="100" y="340" width="20" height="160" as="geometry"/>
                </mxCell>
                <mxCell id="sK_IYHW3HZutUeJiy4_6-4" value="Transfer" style="shape=ext;double=1;rounded=0;whiteSpace=wrap;html=1;fillColor=#647687;fontColor=#ffffff;strokeColor=#314354;" vertex="1" parent="QS4Drok9mOWs24paeTdG-1">
                    <mxGeometry x="-40" y="380" width="120" height="80" as="geometry"/>
                </mxCell>
                <mxCell id="3uN3QkYGqZYh45Ha4ykN-1" style="edgeStyle=none;html=1;fontSize=20;" edge="1" parent="QS4Drok9mOWs24paeTdG-1">
                    <mxGeometry relative="1" as="geometry">
                        <mxPoint x="210" y="630" as="targetPoint"/>
                        <mxPoint y="639.3333333333333" as="sourcePoint"/>
                    </mxGeometry>
                </mxCell>
                <mxCell id="3uN3QkYGqZYh45Ha4ykN-2" value="[d_1,...,d_n]" style="shape=partialRectangle;html=1;whiteSpace=wrap;connectable=0;overflow=hidden;fillColor=none;top=0;left=0;bottom=0;right=0;pointerEvents=1;" vertex="1" parent="QS4Drok9mOWs24paeTdG-1">
                    <mxGeometry x="310" y="240" width="74" height="40" as="geometry">
                        <mxRectangle width="74" height="40" as="alternateBounds"/>
                    </mxGeometry>
                </mxCell>
                <mxCell id="3uN3QkYGqZYh45Ha4ykN-3" value="[d_1,...,d_n]" style="shape=partialRectangle;html=1;whiteSpace=wrap;connectable=0;overflow=hidden;fillColor=none;top=0;left=0;bottom=0;right=0;pointerEvents=1;" vertex="1" parent="QS4Drok9mOWs24paeTdG-1">
                    <mxGeometry x="310" y="370" width="74" height="40" as="geometry">
                        <mxRectangle width="74" height="40" as="alternateBounds"/>
                    </mxGeometry>
                </mxCell>
                <mxCell id="3uN3QkYGqZYh45Ha4ykN-33" value="[d_1,...,d_n]" style="shape=partialRectangle;html=1;whiteSpace=wrap;connectable=0;overflow=hidden;fillColor=none;top=0;left=0;bottom=0;right=0;pointerEvents=1;" vertex="1" parent="QS4Drok9mOWs24paeTdG-1">
                    <mxGeometry x="310" y="110" width="74" height="40" as="geometry">
                        <mxRectangle width="74" height="40" as="alternateBounds"/>
                    </mxGeometry>
                </mxCell>
                <mxCell id="3uN3QkYGqZYh45Ha4ykN-34" value="[d_1,...,d_n]" style="shape=partialRectangle;html=1;whiteSpace=wrap;connectable=0;overflow=hidden;fillColor=none;top=0;left=0;bottom=0;right=0;pointerEvents=1;" vertex="1" parent="QS4Drok9mOWs24paeTdG-1">
                    <mxGeometry x="310" y="150" width="74" height="40" as="geometry">
                        <mxRectangle width="74" height="40" as="alternateBounds"/>
                    </mxGeometry>
                </mxCell>
                <mxCell id="3uN3QkYGqZYh45Ha4ykN-35" value="[d_1,...,d_n]" style="shape=partialRectangle;html=1;whiteSpace=wrap;connectable=0;overflow=hidden;fillColor=none;top=0;left=0;bottom=0;right=0;pointerEvents=1;" vertex="1" parent="QS4Drok9mOWs24paeTdG-1">
                    <mxGeometry x="310" y="280" width="74" height="40" as="geometry">
                        <mxRectangle width="74" height="40" as="alternateBounds"/>
                    </mxGeometry>
                </mxCell>
                <mxCell id="3uN3QkYGqZYh45Ha4ykN-36" value="[d_1,...,d_n]" style="shape=partialRectangle;html=1;whiteSpace=wrap;connectable=0;overflow=hidden;fillColor=none;top=0;left=0;bottom=0;right=0;pointerEvents=1;" vertex="1" parent="QS4Drok9mOWs24paeTdG-1">
                    <mxGeometry x="310" y="410" width="74" height="40" as="geometry">
                        <mxRectangle width="74" height="40" as="alternateBounds"/>
                    </mxGeometry>
                </mxCell>
                <mxCell id="3uN3QkYGqZYh45Ha4ykN-38" value="[d_1,...,d_n]" style="shape=partialRectangle;html=1;whiteSpace=wrap;connectable=0;overflow=hidden;fillColor=none;top=0;left=0;bottom=0;right=0;pointerEvents=1;" vertex="1" parent="QS4Drok9mOWs24paeTdG-1">
                    <mxGeometry x="310" y="450" width="74" height="40" as="geometry">
                        <mxRectangle width="74" height="40" as="alternateBounds"/>
                    </mxGeometry>
                </mxCell>
            </root>
        </mxGraphModel>
    </diagram>
</mxfile>